<?xml version="1.0"?>
<svg xmlns="http://www.w3.org/2000/svg" height="512px" viewBox="0 0 496 496" width="512px"><g><path d="m217.703125 122.175781-33.703125-8.421875v-14.074218c9.792969-8.792969 16-21.503907 16-35.679688v-16c0-26.472656-21.527344-48-48-48s-48 21.527344-48 48v16c0 14.167969 6.207031 26.878906 16 35.679688v14.074218l-33.703125 8.429688c-17.839844 4.457031-30.296875 20.410156-30.296875 38.800781v127.015625h-56v96h88v112h128v-336h-16v88h-96v-88h-16v128h-16v-127.015625c0-11.03125 7.480469-20.609375 18.175781-23.289063l35.367188-8.832031 10.082031 10.082031-8 72 24.375 24.367188 24.375-24.375-8-72 10.082031-10.082031 35.367188 8.832031c10.695312 2.6875 18.175781 12.265625 18.175781 23.296875v135.015625h16v-135.015625c0-18.390625-12.457031-34.34375-30.296875-38.808594zm-119.800781 181.824219-24.878906 20.734375c-5.046876 4.203125-12.992188 4.210937-18.039063-.007813l-24.878906-20.726562zm-81.902344 9.078125 28.726562 23.9375c5.402344 4.503906 12.242188 6.984375 19.273438 6.984375s13.871094-2.480469 19.265625-6.976562l28.734375-23.945313v54.921875h-96zm88-49.078125h96v216h-40v-184h-16v184h-40v-96h24v-96h-24zm16-216c0-17.648438 14.351562-32 32-32s32 14.351562 32 32v16c0 17.648438-14.351562 32-32 32s-32-14.351562-32-32zm32 64c5.617188 0 10.984375-1.023438 16-2.800781v7.488281l-16 16-16-16v-7.488281c5.015625 1.777343 10.382812 2.800781 16 2.800781zm0 100.6875-7.625-7.625 7.625-68.613281 7.625 68.613281zm0 0" data-original="#000000" class="active-path" data-old_color="#000000" fill="#FFFFFF"/><path d="m465.703125 122.175781-33.703125-8.421875v-14.074218c9.792969-8.792969 16-21.503907 16-35.679688v-16c0-26.472656-21.527344-48-48-48s-48 21.527344-48 48v16c0 14.167969 6.207031 26.878906 16 35.679688v14.074218l-33.703125 8.429688c-17.839844 4.457031-30.296875 20.410156-30.296875 38.800781v135.015625h16v-135.015625c0-11.03125 7.480469-20.609375 18.175781-23.289063l45.824219-11.449218v-17.046875c5.015625 1.785156 10.382812 2.800781 16 2.800781s10.984375-1.023438 16-2.800781v17.046875l45.824219 11.449218c10.695312 2.679688 18.175781 12.257813 18.175781 23.289063v135.015625h16v-135.015625c0-18.390625-12.457031-34.34375-30.296875-38.808594zm-97.703125-58.175781v-16c0-17.648438 14.351562-32 32-32s32 14.351562 32 32v16c0 17.648438-14.351562 32-32 32s-32-14.351562-32-32zm0 0" data-original="#000000" class="active-path" data-old_color="#000000" fill="#FFFFFF"/><path d="m448 248h-96v-88h-16v336h128v-336h-16zm-40 232v-184h-16v184h-40v-216h96v216zm0 0" data-original="#000000" class="active-path" data-old_color="#000000" fill="#FFFFFF"/><path d="m240 80h65.191406l30.808594 24.648438v-88.648438c0-8.824219-7.175781-16-16-16h-80c-8.824219 0-16 7.175781-16 16v48c0 8.824219 7.175781 16 16 16zm0-64h80v55.351562l-9.191406-7.351562h-70.808594zm0 0" data-original="#000000" class="active-path" data-old_color="#000000" fill="#FFFFFF"/><path d="m256 32h16v16h-16zm0 0" data-original="#000000" class="active-path" data-old_color="#000000" fill="#FFFFFF"/><path d="m288 32h16v16h-16zm0 0" data-original="#000000" class="active-path" data-old_color="#000000" fill="#FFFFFF"/></g> </svg>
