<?xml version="1.0"?>
<svg xmlns="http://www.w3.org/2000/svg" height="512px" viewBox="0 0 60 60" width="512px"><g><g id="068---Sale-Bilboard"><path id="Shape" d="m55 4h-4c0-2.209139-1.790861-4-4-4s-4 1.790861-4 4h-12v-3c0-.55228475-.4477153-1-1-1s-1 .44771525-1 1v3h-12c0-2.209139-1.790861-4-4-4s-4 1.790861-4 4h-4c-2.76142375 0-5 2.23857625-5 5v33c0 2.7614237 2.23857625 5 5 5h21v7h-3c-1.6568542 0-3 1.3431458-3 3v2c0 .5522847.4477153 1 1 1h18c.5522847 0 1-.4477153 1-1v-2c0-1.6568542-1.3431458-3-3-3h-3v-7h21c2.7614237 0 5-2.2385763 5-5v-33c0-2.76142375-2.2385763-5-5-5zm-8-2c1.1045695 0 2 .8954305 2 2h-4c0-1.1045695.8954305-2 2-2zm3 8c.5522847 0 1 .4477153 1 1v1h-2v-1c0-.5522847.4477153-1 1-1zm-37-8c1.1045695 0 2 .8954305 2 2h-4c0-1.1045695.8954305-2 2-2zm-3 8c.5522847 0 1 .4477153 1 1v1h-2v-1c0-.5522847.44771525-1 1-1zm28 47v1h-16v-1c0-.5522847.4477153-1 1-1h14c.5522847 0 1 .4477153 1 1zm-6-3h-4v-7h4zm23-9h-50c-1.65685425 0-3-1.3431458-3-3h6c.55228475 0 1-.4477153 1-1s-.44771525-1-1-1h-6v-31c0-1.65685425 1.34314575-3 3-3h4v2.18c-1.1957287.4227483-1.99643563 1.55174508-2 2.82v2c0 .5522847.44771525 1 1 1h4c.5522847 0 1-.4477153 1-1v-2c-.0035644-1.26825492-.8042713-2.3972517-2-2.82v-2.18h18v2.18c-1.1957287.4227483-1.9964356 1.55174508-2 2.82v2c0 .5522847.4477153 1 1 1h4c.5522847 0 1-.4477153 1-1v-2c-.0035644-1.26825492-.8042713-2.3972517-2-2.82v-2.18h18v2.18c-1.1957287.4227483-1.9964356 1.55174508-2 2.82v2c0 .5522847.4477153 1 1 1h4c.5522847 0 1-.4477153 1-1v-2c-.0035644-1.26825492-.8042713-2.3972517-2-2.82v-2.18h4c1.6568542 0 3 1.34314575 3 3v31h-45c-.5522847 0-1 .4477153-1 1s.4477153 1 1 1h45c0 1.6568542-1.3431458 3-3 3zm-25-35c.5522847 0 1 .4477153 1 1v1h-2v-1c0-.5522847.4477153-1 1-1z" data-original="#000000" class="active-path" data-old_color="#000000" fill="#FFFFFF"/><path id="Shape" d="m7.45 15.11c-.49165355-.2469243-1.09042437-.050313-1.34.44l-1 2c-.15596925.3095182-.14054526.6777279.04076307.9731178.18130834.29539.50264372.4758333.84923693.4768822.37655821-.0011413.72054976-.2137203.89-.55l1-2c.2469243-.4916536.05031299-1.0904244-.44-1.34z" data-original="#000000" class="active-path" data-old_color="#000000" fill="#FFFFFF"/><path id="Shape" d="m13.11 18.45c.2700473.4487927.8406385.6131719 1.3080622.3768341s.6732882-.7933069.4719378-1.2768341l-1-2c-.2700473-.4487927-.8406385-.6131719-1.3080622-.3768341s-.6732882.7933069-.4719378 1.2768341z" data-original="#000000" class="active-path" data-old_color="#000000" fill="#FFFFFF"/><path id="Shape" d="m10 15c-.55228475 0-1 .4477153-1 1v2c0 .5522847.44771525 1 1 1 .5522847 0 1-.4477153 1-1v-2c0-.5522847-.4477153-1-1-1z" data-original="#000000" class="active-path" data-old_color="#000000" fill="#FFFFFF"/><path id="Shape" d="m25.55 18.89c.4916536.2469243 1.0904244.050313 1.34-.44l1-2c.1932607-.3211808.1906728-.7234705-.0067041-1.0421383-.1973768-.3186678-.5563928-.5001928-.9300368-.4702434s-.6991617.2663431-.8432591.6123817l-1 2c-.2469243.4916536-.050313 1.0904244.44 1.34z" data-original="#000000" class="active-path" data-old_color="#000000" fill="#FFFFFF"/><path id="Shape" d="m33.11 18.45c.2700473.4487927.8406385.6131719 1.3080622.3768341s.6732882-.7933069.4719378-1.2768341l-1-2c-.1440974-.3460386-.4696151-.5824323-.8432591-.6123817s-.73266.1515756-.9300368.4702434c-.1973769.3186678-.1999648.7209575-.0067041 1.0421383z" data-original="#000000" class="active-path" data-old_color="#000000" fill="#FFFFFF"/><path id="Shape" d="m30 19c.5522847 0 1-.4477153 1-1v-2c0-.5522847-.4477153-1-1-1s-1 .4477153-1 1v2c0 .5522847.4477153 1 1 1z" data-original="#000000" class="active-path" data-old_color="#000000" fill="#FFFFFF"/><path id="Shape" d="m45.55 18.89c.4916536.2469243 1.0904244.050313 1.34-.44l1-2c.2013504-.4835272-.0045141-1.0404963-.4719378-1.2768341s-1.0380149-.0719586-1.3080622.3768341l-1 2c-.2469243.4916536-.050313 1.0904244.44 1.34z" data-original="#000000" class="active-path" data-old_color="#000000" fill="#FFFFFF"/><path id="Shape" d="m53.11 18.45c.1440974.3460386.4696151.5824323.8432591.6123817s.73266-.1515756.9300368-.4702434c.1973769-.3186678.1999648-.7209575.0067041-1.0421383l-1-2c-.2700473-.4487927-.8406385-.6131719-1.3080622-.3768341s-.6732882.7933069-.4719378 1.2768341z" data-original="#000000" class="active-path" data-old_color="#000000" fill="#FFFFFF"/><path id="Shape" d="m50 19c.5522847 0 1-.4477153 1-1v-2c0-.5522847-.4477153-1-1-1s-1 .4477153-1 1v2c0 .5522847.4477153 1 1 1z" data-original="#000000" class="active-path" data-old_color="#000000" fill="#FFFFFF"/><path id="Shape" d="m16.5 31c-1.5 0-2.5-.79-2.5-1.5 0-.5522847-.4477153-1-1-1-2 0-1 4.5 3.5 4.5 2.5 0 4.5-1.54 4.5-3.5s-2-3.5-4.5-3.5c-1.5 0-2.5-.79-2.5-1.5s1-1.5 2.5-1.5 2.5.79 2.5 1.5c0 .5522847.4477153 1 1 1 2 0 1-4.5-3.5-4.5-2.5 0-4.5 1.54-4.5 3.5s2 3.5 4.5 3.5c1.47 0 2.5.79 2.5 1.5s-1 1.5-2.5 1.5z" data-original="#000000" class="active-path" data-old_color="#000000" fill="#FFFFFF"/><path id="Shape" d="m22.63 32.93c.246631.0983792.5222628.0946309.7661274-.0104184.2438647-.1050494.4359375-.3027739.5338726-.5495816l.95-2.37h4.24l.95 2.37c.1321883.332257.4315923.5687535.7854294.6204036s.7083511-.0893931.93-.37.2767589-.6581466.1445706-.9904036l-4-10c-.1508496-.38168-.5195914-.6324405-.93-.6324405s-.7791504.2507605-.93.6324405l-4 10c-.0983792.246631-.0946309.5222628.0104184.7661274.1050494.2438647.3027739.4359375.5495816.5338726zm4.37-8.24 1.32 3.31h-2.64z" data-original="#000000" class="active-path" data-old_color="#000000" fill="#FFFFFF"/><path id="Shape" d="m34 21c-.5522847 0-1 .4477153-1 1v10c0 .5522847.4477153 1 1 1h5c.5522847 0 1-.4477153 1-1s-.4477153-1-1-1h-4v-9c0-.5522847-.4477153-1-1-1z" data-original="#000000" class="active-path" data-old_color="#000000" fill="#FFFFFF"/><path id="Shape" d="m42 33h5c.5522847 0 1-.4477153 1-1s-.4477153-1-1-1h-4v-3h3c.5522847 0 1-.4477153 1-1s-.4477153-1-1-1h-3v-3h4c.5522847 0 1-.4477153 1-1s-.4477153-1-1-1h-5c-.5522847 0-1 .4477153-1 1v10c0 .5522847.4477153 1 1 1z" data-original="#000000" class="active-path" data-old_color="#000000" fill="#FFFFFF"/></g></g> </svg>
